<svg width="392" height="225" viewBox="0 0 392 225" fill="none" xmlns="http://www.w3.org/2000/svg">
<g filter="url(#filter0_d_808_9)">
<line x1="224.464" y1="164.465" x2="384.464" y2="4.46471" stroke="white" stroke-width="10"/>
<line x1="224.464" y1="164.465" x2="384.464" y2="4.46471" stroke="white" stroke-width="10"/>
<line x1="224.464" y1="164.465" x2="384.464" y2="4.46471" stroke="white" stroke-width="10"/>
<line x1="226" y1="161" x2="226" y2="217" stroke="white" stroke-width="10"/>
<line y1="-5" x2="226.274" y2="-5" transform="matrix(-0.707107 -0.707107 -0.707107 0.707107 164 168)" stroke="white" stroke-width="10"/>
<line y1="-5" x2="226.274" y2="-5" transform="matrix(-0.707107 -0.707107 -0.707107 0.707107 164 168)" stroke="white" stroke-width="10"/>
<line y1="-5" x2="226.274" y2="-5" transform="matrix(-0.707107 -0.707107 -0.707107 0.707107 164 168)" stroke="white" stroke-width="10"/>
<line y1="-5" x2="56" y2="-5" transform="matrix(-4.37114e-08 1 1 4.37114e-08 171 161)" stroke="white" stroke-width="10"/>
</g>
<defs>
<filter id="filter0_d_808_9" x="0" y="0.929077" width="392" height="224.071" filterUnits="userSpaceOnUse" color-interpolation-filters="sRGB">
<feFlood flood-opacity="0" result="BackgroundImageFix"/>
<feColorMatrix in="SourceAlpha" type="matrix" values="0 0 0 0 0 0 0 0 0 0 0 0 0 0 0 0 0 0 127 0" result="hardAlpha"/>
<feOffset dy="4"/>
<feGaussianBlur stdDeviation="2"/>
<feComposite in2="hardAlpha" operator="out"/>
<feColorMatrix type="matrix" values="0 0 0 0 0 0 0 0 0 0 0 0 0 0 0 0 0 0 0.25 0"/>
<feBlend mode="normal" in2="BackgroundImageFix" result="effect1_dropShadow_808_9"/>
<feBlend mode="normal" in="SourceGraphic" in2="effect1_dropShadow_808_9" result="shape"/>
</filter>
</defs>
</svg>
